<?xml version="1.0"?>
<svg viewBox="0 0 512 512" xmlns="http://www.w3.org/2000/svg" xmlns:xlink="http://www.w3.org/1999/xlink">
    <style>:root>svg{display:none}:root>svg:target{display:block}</style>
    <svg viewBox="0 0 384 384" id="Phone" xmlns="http://www.w3.org/2000/svg">
        <path d="M348.4 250.268c-22.811 0-45.21-3.567-66.435-10.582-10.4-3.547-23.186-.293-29.534 6.227l-41.894 31.626c-48.586-25.935-78.514-55.854-104.095-104.075l30.695-40.803c7.975-7.964 10.836-19.598 7.409-30.514-7.045-21.336-10.623-43.724-10.623-66.546 0-16.486-13.412-29.898-29.897-29.898H35.6C19.115 5.703 5.703 19.115 5.703 35.6c0 188.966 153.732 342.697 342.698 342.697 16.485 0 29.897-13.412 29.897-29.897v-68.235c0-16.484-13.413-29.897-29.897-29.897z"
              data-original="#000000" class="aactive-path" data-old_color="#000000" fill="#FFF"/>
    </svg>
    <svg viewBox="-23 -21 682 682.667" id="Watsapp" xmlns="http://www.w3.org/2000/svg">
        <path d="M544.387 93.008C484.512 33.063 404.883.035 320.05 0 145.246 0 2.98 142.262 2.91 317.113c-.024 55.895 14.577 110.457 42.331 158.551L.25 640l168.121-44.102c46.324 25.27 98.477 38.586 151.55 38.602h.134c174.785 0 317.066-142.273 317.132-317.133.036-84.742-32.921-164.418-92.8-224.36zM320.05 580.94h-.11c-47.296-.02-93.683-12.73-134.16-36.742l-9.62-5.715-99.766 26.172 26.628-97.27-6.27-9.972c-26.386-41.969-40.32-90.476-40.296-140.281.055-145.332 118.305-263.57 263.7-263.57 70.406.023 136.59 27.476 186.355 77.3s77.156 116.051 77.133 186.485C583.582 462.69 465.34 580.94 320.05 580.94zm144.586-197.418c-7.922-3.968-46.883-23.132-54.149-25.78-7.258-2.645-12.547-3.962-17.824 3.968-5.285 7.93-20.469 25.781-25.094 31.066-4.625 5.29-9.242 5.953-17.168 1.985-7.925-3.965-33.457-12.336-63.726-39.332-23.555-21.012-39.457-46.961-44.082-54.89-4.617-7.938-.04-11.813 3.476-16.173 8.578-10.652 17.168-21.82 19.809-27.105 2.644-5.29 1.32-9.918-.664-13.883-1.977-3.965-17.824-42.969-24.426-58.84-6.437-15.445-12.965-13.36-17.832-13.601-4.617-.231-9.902-.278-15.187-.278-5.282 0-13.868 1.98-21.133 9.918-7.262 7.934-27.73 27.102-27.73 66.106s28.394 76.683 32.355 81.972c3.96 5.29 55.879 85.328 135.367 119.649 18.906 8.172 33.664 13.043 45.176 16.695 18.984 6.031 36.254 5.18 49.91 3.14 15.226-2.277 46.879-19.171 53.488-37.68 6.602-18.51 6.602-34.374 4.617-37.683-1.976-3.304-7.261-5.285-15.183-9.254zm0 0"
              fill-rule="evenodd" data-original="#000000" class="bactive-path" data-old_color="#000000" fill="#FFF"/>
    </svg>
    <svg viewBox="0 0 512 512" id="mail" xmlns="http://www.w3.org/2000/svg">
        <path d="M467 61H45C20.218 61 0 81.196 0 106v300c0 24.72 20.128 45 45 45h422c24.72 0 45-20.128 45-45V106c0-24.72-20.128-45-45-45zm-6.214 30L256.954 294.833 51.359 91h409.427zM30 399.788V112.069l144.479 143.24L30 399.788zM51.213 421l144.57-144.57 50.657 50.222c5.864 5.814 15.327 5.795 21.167-.046L317 277.213 460.787 421H51.213zM482 399.787L338.213 256 482 112.212v287.575z"
              class="cactive-path" fill="#FFF"/>
    </svg>
</svg>